<svg xmlns="http://www.w3.org/2000/svg" viewBox="0 0 1200 630" role="img" aria-label="lidge-jun GitHub profile preview">
  <rect width="1200" height="630" fill="#f7f2ee"/>
  <rect x="72" y="72" width="1056" height="486" rx="28" fill="#ffffff" stroke="#e7d9d3"/>
  <rect x="112" y="112" width="82" height="82" rx="20" fill="#111827"/>
  <path d="M133 175v-45h14v33h34v12h-48Z" fill="#C41E3A"/>
  <path d="M154 130h27v12h-13v39h-14v-51Z" fill="#ffffff"/>
  <text x="224" y="146" font-family="Inter, Arial, sans-serif" font-size="28" fill="#C41E3A" font-weight="700" letter-spacing="4">LIDGE-JUN</text>
  <text x="224" y="214" font-family="Inter, Arial, sans-serif" font-size="58" fill="#111827" font-weight="800">AI systems, local tools, and public experiments.</text>
  <text x="224" y="276" font-family="Inter, Arial, sans-serif" font-size="27" fill="#4b5563">Korea University. Non-CS student. Building the tools I want to exist.</text>
  <g transform="translate(224 340)">
    <rect width="208" height="88" rx="18" fill="#fff8f8" stroke="#edc7c7"/>
    <text x="26" y="38" font-family="Inter, Arial, sans-serif" font-size="20" fill="#6b7280">core repo</text>
    <text x="26" y="66" font-family="Inter, Arial, sans-serif" font-size="26" fill="#111827" font-weight="800">cli-jaw</text>
  </g>
  <g transform="translate(456 340)">
    <rect width="208" height="88" rx="18" fill="#f8fafc" stroke="#d7dde7"/>
    <text x="26" y="38" font-family="Inter, Arial, sans-serif" font-size="20" fill="#6b7280">visuals</text>
    <text x="26" y="66" font-family="Inter, Arial, sans-serif" font-size="26" fill="#111827" font-weight="800">ima2-gen</text>
  </g>
  <g transform="translate(688 340)">
    <rect width="208" height="88" rx="18" fill="#f8fafc" stroke="#d7dde7"/>
    <text x="26" y="38" font-family="Inter, Arial, sans-serif" font-size="20" fill="#6b7280">research</text>
    <text x="26" y="66" font-family="Inter, Arial, sans-serif" font-size="26" fill="#111827" font-weight="800">progrok</text>
  </g>
  <text x="224" y="492" font-family="Inter, Arial, sans-serif" font-size="24" fill="#6b7280">README and Pages surfaces are maintained as real project entry points.</text>
</svg>
